<mxfile host="65bd71144e">
    <diagram id="migration-process-diagram" name="Migration Process Overview">
        <mxGraphModel dx="1453" dy="607" grid="0" gridSize="10" guides="1" tooltips="1" connect="1" arrows="1" fold="1" page="1" pageScale="1" pageWidth="1100" pageHeight="850" math="0" shadow="0">
            <root>
                <mxCell id="0"/>
                <mxCell id="1" parent="0"/>
                <mxCell id="title" value="Azure Functions: Linux Consumption to Flex Consumption Migration Process" style="text;html=1;strokeColor=none;fillColor=none;align=center;verticalAlign=middle;whiteSpace=wrap;rounded=0;fontSize=18;fontStyle=1" parent="1" vertex="1">
                    <mxGeometry x="250" y="20" width="600" height="30" as="geometry"/>
                </mxCell>
                <mxCell id="assessmentBox" value="" style="rounded=1;whiteSpace=wrap;html=1;fillColor=#dae8fc;strokeColor=#6c8ebf;shadow=1;" parent="1" vertex="1">
                    <mxGeometry x="80" y="80" width="200" height="250" as="geometry"/>
                </mxCell>
                <mxCell id="assessmentTitle" value="ASSESSMENT" style="text;html=1;strokeColor=none;fillColor=none;align=center;verticalAlign=middle;whiteSpace=wrap;rounded=0;fontSize=14;fontStyle=1" parent="1" vertex="1">
                    <mxGeometry x="80" y="90" width="200" height="20" as="geometry"/>
                </mxCell>
                <mxCell id="assessmentContent" value="&lt;div style=&quot;text-align: left&quot;&gt;&lt;span style=&quot;background-color: initial;&quot;&gt;&lt;b&gt;1. Identify Apps&lt;/b&gt;&lt;/span&gt;&lt;/div&gt;&lt;div style=&quot;text-align: left&quot;&gt;• Find all Linux Consumption apps&lt;/div&gt;&lt;div style=&quot;text-align: left&quot;&gt;• Document app names, resource groups&lt;/div&gt;&lt;div style=&quot;text-align: left&quot;&gt;&lt;br&gt;&lt;/div&gt;&lt;div style=&quot;text-align: left&quot;&gt;&lt;b&gt;2. Check Compatibility&lt;/b&gt;&lt;/div&gt;&lt;div style=&quot;text-align: left&quot;&gt;• Verify runtime support&lt;/div&gt;&lt;div style=&quot;text-align: left&quot;&gt;• Check region availability&lt;/div&gt;&lt;div style=&quot;text-align: left&quot;&gt;• Verify app code version compatibility&lt;/div&gt;&lt;div style=&quot;text-align: left&quot;&gt;&lt;br&gt;&lt;/div&gt;&lt;div style=&quot;text-align: left&quot;&gt;&lt;b&gt;3. Check Blockers&lt;/b&gt;&lt;/div&gt;&lt;div style=&quot;text-align: left&quot;&gt;• Deployment slots (not supported)&lt;/div&gt;&lt;div style=&quot;text-align: left&quot;&gt;• Certificates (not supported)&lt;/div&gt;&lt;div style=&quot;text-align: left&quot;&gt;• LogsAndContainerScan blob triggers&lt;/div&gt;" style="text;html=1;strokeColor=none;fillColor=none;align=center;verticalAlign=middle;whiteSpace=wrap;rounded=0;fontSize=11;" parent="1" vertex="1">
                    <mxGeometry x="85" y="115" width="190" height="205" as="geometry"/>
                </mxCell>
                <mxCell id="arrow1" value="" style="endArrow=classic;html=1;rounded=0;exitX=1;exitY=0.5;exitDx=0;exitDy=0;entryX=0;entryY=0.5;entryDx=0;entryDy=0;" parent="1" source="assessmentBox" target="preMigrationBox" edge="1">
                    <mxGeometry width="50" height="50" relative="1" as="geometry">
                        <mxPoint x="290" y="205" as="sourcePoint"/>
                        <mxPoint x="340" y="205" as="targetPoint"/>
                    </mxGeometry>
                </mxCell>
                <mxCell id="preMigrationBox" value="" style="rounded=1;whiteSpace=wrap;html=1;fillColor=#d5e8d4;strokeColor=#82b366;shadow=1;" parent="1" vertex="1">
                    <mxGeometry x="350" y="80" width="200" height="250" as="geometry"/>
                </mxCell>
                <mxCell id="preMigrationTitle" value="PRE-MIGRATION" style="text;html=1;strokeColor=none;fillColor=none;align=center;verticalAlign=middle;whiteSpace=wrap;rounded=0;fontSize=14;fontStyle=1" parent="1" vertex="1">
                    <mxGeometry x="350" y="90" width="200" height="20" as="geometry"/>
                </mxCell>
                <mxCell id="preMigrationContent" value="&lt;div style=&quot;text-align: left&quot;&gt;&lt;b&gt;1. Document App Settings&lt;/b&gt;&lt;/div&gt;&lt;div style=&quot;text-align: left&quot;&gt;• Export app settings&lt;/div&gt;&lt;div style=&quot;text-align: left&quot;&gt;• Note connection strings&lt;/div&gt;&lt;div style=&quot;text-align: left&quot;&gt;&lt;br&gt;&lt;/div&gt;&lt;div style=&quot;text-align: left&quot;&gt;&lt;b&gt;2. Document App Configuration&lt;/b&gt;&lt;/div&gt;&lt;div style=&quot;text-align: left&quot;&gt;• General settings (TLS, HTTPS)&lt;/div&gt;&lt;div style=&quot;text-align: left&quot;&gt;• CORS, custom domains&lt;/div&gt;&lt;div style=&quot;text-align: left&quot;&gt;• Scale limits &amp; storage mounts&lt;/div&gt;&lt;div style=&quot;text-align: left&quot;&gt;&lt;br&gt;&lt;/div&gt;&lt;div style=&quot;text-align: left&quot;&gt;&lt;b&gt;3. Prepare App Code&lt;/b&gt;&lt;/div&gt;&lt;div style=&quot;text-align: left&quot;&gt;• Backup deployment package&lt;/div&gt;&lt;div style=&quot;text-align: left&quot;&gt;• Document authentication settings&lt;/div&gt;&lt;div style=&quot;text-align: left&quot;&gt;• Document network restrictions&lt;/div&gt;" style="text;html=1;strokeColor=none;fillColor=none;align=center;verticalAlign=middle;whiteSpace=wrap;rounded=0;fontSize=11;" parent="1" vertex="1">
                    <mxGeometry x="355" y="115" width="190" height="205" as="geometry"/>
                </mxCell>
                <mxCell id="arrow2" value="" style="endArrow=classic;html=1;rounded=0;exitX=1;exitY=0.5;exitDx=0;exitDy=0;entryX=0;entryY=0.5;entryDx=0;entryDy=0;" parent="1" source="preMigrationBox" target="migrationBox" edge="1">
                    <mxGeometry width="50" height="50" relative="1" as="geometry">
                        <mxPoint x="560" y="205" as="sourcePoint"/>
                        <mxPoint x="610" y="205" as="targetPoint"/>
                    </mxGeometry>
                </mxCell>
                <mxCell id="migrationBox" value="" style="rounded=1;whiteSpace=wrap;html=1;fillColor=#ffe6cc;strokeColor=#d79b00;shadow=1;" parent="1" vertex="1">
                    <mxGeometry x="620" y="80" width="200" height="250" as="geometry"/>
                </mxCell>
                <mxCell id="migrationTitle" value="MIGRATION" style="text;html=1;strokeColor=none;fillColor=none;align=center;verticalAlign=middle;whiteSpace=wrap;rounded=0;fontSize=14;fontStyle=1" parent="1" vertex="1">
                    <mxGeometry x="620" y="90" width="200" height="20" as="geometry"/>
                </mxCell>
                <mxCell id="migrationContent" value="&lt;div style=&quot;text-align: left&quot;&gt;&lt;b&gt;1. Create Resources&lt;/b&gt;&lt;/div&gt;&lt;div style=&quot;text-align: left&quot;&gt;• Create Flex Consumption app&lt;/div&gt;&lt;div style=&quot;text-align: left&quot;&gt;• Configure storage account&lt;/div&gt;&lt;div style=&quot;text-align: left&quot;&gt;&lt;br&gt;&lt;/div&gt;&lt;div style=&quot;text-align: left&quot;&gt;&lt;b&gt;2. Configure App&lt;/b&gt;&lt;/div&gt;&lt;div style=&quot;text-align: left&quot;&gt;• Apply filtered app settings&lt;/div&gt;&lt;div style=&quot;text-align: left&quot;&gt;• Set scale &amp; concurrency settings&lt;/div&gt;&lt;div style=&quot;text-align: left&quot;&gt;• Configure identity &amp; RBAC&lt;/div&gt;&lt;div style=&quot;text-align: left&quot;&gt;• Apply general configuration&lt;/div&gt;&lt;div style=&quot;text-align: left&quot;&gt;&lt;br&gt;&lt;/div&gt;&lt;div style=&quot;text-align: left&quot;&gt;&lt;b&gt;3. Deploy Code&lt;/b&gt;&lt;/div&gt;&lt;div style=&quot;text-align: left&quot;&gt;• Deploy application package&lt;/div&gt;&lt;div style=&quot;text-align: left&quot;&gt;• Set up trigger-specific settings&lt;/div&gt;" style="text;html=1;strokeColor=none;fillColor=none;align=center;verticalAlign=middle;whiteSpace=wrap;rounded=0;fontSize=11;" parent="1" vertex="1">
                    <mxGeometry x="625" y="115" width="190" height="205" as="geometry"/>
                </mxCell>
                <mxCell id="arrow3" value="" style="endArrow=classic;html=1;rounded=0;exitX=1;exitY=0.5;exitDx=0;exitDy=0;entryX=0;entryY=0.5;entryDx=0;entryDy=0;" parent="1" source="migrationBox" target="validationBox" edge="1">
                    <mxGeometry width="50" height="50" relative="1" as="geometry">
                        <mxPoint x="830" y="205" as="sourcePoint"/>
                        <mxPoint x="880" y="205" as="targetPoint"/>
                    </mxGeometry>
                </mxCell>
                <mxCell id="validationBox" value="" style="rounded=1;whiteSpace=wrap;html=1;fillColor=#fff2cc;strokeColor=#d6b656;shadow=1;" parent="1" vertex="1">
                    <mxGeometry x="890" y="80" width="200" height="250" as="geometry"/>
                </mxCell>
                <mxCell id="validationTitle" value="VALIDATION" style="text;html=1;strokeColor=none;fillColor=none;align=center;verticalAlign=middle;whiteSpace=wrap;rounded=0;fontSize=14;fontStyle=1" parent="1" vertex="1">
                    <mxGeometry x="890" y="90" width="200" height="20" as="geometry"/>
                </mxCell>
                <mxCell id="validationContent" value="&lt;div style=&quot;text-align: left&quot;&gt;&lt;b&gt;1. Verify Functionality&lt;/b&gt;&lt;/div&gt;&lt;div style=&quot;text-align: left&quot;&gt;• Confirm app running on Flex plan&lt;/div&gt;&lt;div style=&quot;text-align: left&quot;&gt;• Test all function endpoints&lt;/div&gt;&lt;div style=&quot;text-align: left&quot;&gt;• Verify trigger processing&lt;/div&gt;&lt;div style=&quot;text-align: left&quot;&gt;&lt;br&gt;&lt;/div&gt;&lt;div style=&quot;text-align: left&quot;&gt;&lt;b&gt;2. Monitor Performance&lt;/b&gt;&lt;/div&gt;&lt;div style=&quot;text-align: left&quot;&gt;• Check execution metrics&lt;/div&gt;&lt;div style=&quot;text-align: left&quot;&gt;• Measure cold start times&lt;/div&gt;&lt;div style=&quot;text-align: left&quot;&gt;• Analyze scaling behavior&lt;/div&gt;&lt;div style=&quot;text-align: left&quot;&gt;&lt;br&gt;&lt;/div&gt;&lt;div style=&quot;text-align: left&quot;&gt;&lt;b&gt;3. Troubleshoot Issues&lt;/b&gt;&lt;/div&gt;&lt;div style=&quot;text-align: left&quot;&gt;• Review Application Insights logs&lt;/div&gt;&lt;div style=&quot;text-align: left&quot;&gt;• Address binding configuration issues&lt;/div&gt;" style="text;html=1;strokeColor=none;fillColor=none;align=center;verticalAlign=middle;whiteSpace=wrap;rounded=0;fontSize=11;" parent="1" vertex="1">
                    <mxGeometry x="895" y="115" width="190" height="205" as="geometry"/>
                </mxCell>
                <mxCell id="arrow4" value="" style="endArrow=classic;html=1;rounded=0;exitX=0.5;exitY=1;exitDx=0;exitDy=0;entryX=0.5;entryY=0;entryDx=0;entryDy=0;" parent="1" source="validationBox" target="postMigrationBox" edge="1">
                    <mxGeometry width="50" height="50" relative="1" as="geometry">
                        <mxPoint x="990" y="340" as="sourcePoint"/>
                        <mxPoint x="990" y="380" as="targetPoint"/>
                    </mxGeometry>
                </mxCell>
                <mxCell id="postMigrationBox" value="" style="rounded=1;whiteSpace=wrap;html=1;fillColor=#f8cecc;strokeColor=#b85450;shadow=1;" parent="1" vertex="1">
                    <mxGeometry x="620" y="380" width="470" height="184" as="geometry"/>
                </mxCell>
                <mxCell id="postMigrationTitle" value="POST-MIGRATION" style="text;html=1;strokeColor=none;fillColor=none;align=center;verticalAlign=middle;whiteSpace=wrap;rounded=0;fontSize=14;fontStyle=1" parent="1" vertex="1">
                    <mxGeometry x="620" y="390" width="470" height="20" as="geometry"/>
                </mxCell>
                <mxCell id="postMigrationContent" value="&lt;div style=&quot;text-align: left&quot;&gt;&lt;b&gt;1. Update Client References&lt;/b&gt;&lt;/div&gt;&lt;div style=&quot;text-align: left&quot;&gt;• Update DNS and routing&lt;/div&gt;&lt;div style=&quot;text-align: left&quot;&gt;• Redirect clients to new app endpoints&lt;/div&gt;&lt;div style=&quot;text-align: left&quot;&gt;• Rename apps if needed (swap names)&lt;/div&gt;&lt;div style=&quot;text-align: left&quot;&gt;&lt;br&gt;&lt;/div&gt;&lt;div style=&quot;text-align: left&quot;&gt;&lt;b&gt;2. Update Infrastructure as Code&lt;/b&gt;&lt;/div&gt;&lt;div style=&quot;text-align: left&quot;&gt;• Update ARM/Bicep/Terraform templates&lt;/div&gt;&lt;div style=&quot;text-align: left&quot;&gt;• Adapt CI/CD pipelines for Flex model&lt;/div&gt;&lt;div style=&quot;text-align: left&quot;&gt;• Update monitoring and alerts&lt;/div&gt;" style="text;html=1;strokeColor=none;fillColor=none;align=left;verticalAlign=middle;whiteSpace=wrap;rounded=0;fontSize=11;" parent="1" vertex="1">
                    <mxGeometry x="630" y="415" width="230" height="115" as="geometry"/>
                </mxCell>
                <mxCell id="postMigrationContent2" value="&lt;div style=&quot;text-align: left&quot;&gt;&lt;b&gt;3. Monitor and Optimize&lt;/b&gt;&lt;/div&gt;&lt;div style=&quot;text-align: left&quot;&gt;• Track Flex Consumption-specific metrics&lt;/div&gt;&lt;div style=&quot;text-align: left&quot;&gt;• Analyze cost implications&lt;/div&gt;&lt;div style=&quot;text-align: left&quot;&gt;• Adjust memory and concurrency settings&lt;/div&gt;&lt;div style=&quot;text-align: left&quot;&gt;&lt;br&gt;&lt;/div&gt;&lt;div style=&quot;text-align: left&quot;&gt;&lt;b&gt;4. Clean Up (Optional)&lt;/b&gt;&lt;/div&gt;&lt;div style=&quot;text-align: left&quot;&gt;• Delete original Linux Consumption app&lt;/div&gt;&lt;div style=&quot;text-align: left&quot;&gt;• Remove unused storage accounts&lt;/div&gt;&lt;div style=&quot;text-align: left&quot;&gt;• Document completed migration&lt;/div&gt;" style="text;html=1;strokeColor=none;fillColor=none;align=left;verticalAlign=middle;whiteSpace=wrap;rounded=0;fontSize=11;" parent="1" vertex="1">
                    <mxGeometry x="850" y="415" width="230" height="115" as="geometry"/>
                </mxCell>
                <mxCell id="legend" value="" style="rounded=1;whiteSpace=wrap;html=1;fillColor=#f5f5f5;strokeColor=#666666;fontColor=#333333;dashed=1;" parent="1" vertex="1">
                    <mxGeometry x="80" y="380" width="470" height="194" as="geometry"/>
                </mxCell>
                <mxCell id="legendTitle" value="FLEX CONSUMPTION BENEFITS" style="text;html=1;strokeColor=none;fillColor=none;align=center;verticalAlign=middle;whiteSpace=wrap;rounded=0;fontSize=14;fontStyle=1" parent="1" vertex="1">
                    <mxGeometry x="80" y="383" width="470" height="20" as="geometry"/>
                </mxCell>
                <mxCell id="legendContent" value="&lt;div style=&quot;text-align: left&quot;&gt;&lt;b&gt;Performance&lt;/b&gt;&lt;/div&gt;&lt;div style=&quot;text-align: left&quot;&gt;• Reduced cold start times with Always Ready instances&lt;/div&gt;&lt;div style=&quot;text-align: left&quot;&gt;• Per-function scaling for more efficient resource allocation&lt;/div&gt;&lt;div style=&quot;text-align: left&quot;&gt;• Multiple memory size options (512MB, 2048MB, 4096MB)&lt;/div&gt;&lt;div style=&quot;text-align: left&quot;&gt;&lt;br&gt;&lt;/div&gt;&lt;div style=&quot;text-align: left&quot;&gt;&lt;b&gt;Networking&lt;/b&gt;&lt;/div&gt;&lt;div style=&quot;text-align: left&quot;&gt;• Improved VNet integration capabilities&lt;/div&gt;&lt;div style=&quot;text-align: left&quot;&gt;• Private endpoint support&lt;/div&gt;&lt;div style=&quot;text-align: left&quot;&gt;• Better networking security controls&lt;/div&gt;" style="text;html=1;strokeColor=none;fillColor=none;align=left;verticalAlign=middle;whiteSpace=wrap;rounded=0;fontSize=11;" parent="1" vertex="1">
                    <mxGeometry x="90" y="432" width="230" height="115" as="geometry"/>
                </mxCell>
                <mxCell id="legendContent2" value="&lt;div style=&quot;text-align: left&quot;&gt;&lt;b&gt;Scalability&lt;/b&gt;&lt;/div&gt;&lt;div style=&quot;text-align: left&quot;&gt;• Configurable concurrency settings per function&lt;/div&gt;&lt;div style=&quot;text-align: left&quot;&gt;• Higher instance count maximums&lt;/div&gt;&lt;div style=&quot;text-align: left&quot;&gt;• Better handling of bursty workloads&lt;/div&gt;&lt;div style=&quot;text-align: left&quot;&gt;&lt;br&gt;&lt;/div&gt;&lt;div style=&quot;text-align: left&quot;&gt;&lt;b&gt;Billing Model&lt;/b&gt;&lt;/div&gt;&lt;div style=&quot;text-align: left&quot;&gt;• Charges based on instance memory size and active periods&lt;/div&gt;&lt;div style=&quot;text-align: left&quot;&gt;• No content share storage charges&lt;/div&gt;&lt;div style=&quot;text-align: left&quot;&gt;• Opportunity to optimize with concurrency settings&lt;/div&gt;" style="text;html=1;strokeColor=none;fillColor=none;align=left;verticalAlign=middle;whiteSpace=wrap;rounded=0;fontSize=11;" parent="1" vertex="1">
                    <mxGeometry x="310" y="432" width="230" height="115" as="geometry"/>
                </mxCell>
            </root>
        </mxGraphModel>
    </diagram>
</mxfile>